<svg xmlns="http://www.w3.org/2000/svg" 
viewBox="0 0 150 175"><g>
<path d="m0,183.81V0h78.17c14.96,0,27.75,2.66,38.36,7.98s18.7,12.83,24.28,22.54c5.58,9.71,8.37,21.11,8.37,34.2s-2.84,24.46-8.51,33.91c-5.68,9.45-16.51,21.83-27.24,26.86-10.74,5.03-23.72,7.55-38.94,7.55H22.14l2.62-41.05h45.57c8,0,15.6.53,20.89-1.66,5.29-2.19,8.28-4.86,10.89-9.25,2.61-4.39,3.92-9.84,3.92-16.35s-1.31-12.12-3.92-16.64c-2.61-4.51-6.58-7.95-11.9-10.3-5.32-2.35-12.01-3.53-20.07-3.53l-25.67-1.07v149.57l-44.46,1.07Zm108.33-75.85l49.24,75.85h-55.43l-48.18-75.85h54.37Z">
</path></g></svg>